<svg width="900" height="680" viewBox="0 0 900 680" fill="none" xmlns="http://www.w3.org/2000/svg">
<rect width="900" height="680" rx="36" fill="url(#paint0_linear_101_2)"/>
<g opacity="0.5">
<circle cx="130" cy="120" r="90" fill="#90A5FF"/>
<circle cx="760" cy="560" r="140" fill="#6E85FF"/>
</g>
<rect x="158" y="108" width="584" height="468" rx="28" fill="#FFFFFF"/>
<rect x="190" y="146" width="520" height="38" rx="10" fill="#EEF1FF"/>
<rect x="210" y="157" width="180" height="14" rx="7" fill="#B3C0FF"/>
<rect x="210" y="224" width="300" height="16" rx="8" fill="#DCE3FF"/>
<rect x="210" y="254" width="210" height="12" rx="6" fill="#E9EEFF"/>
<rect x="210" y="308" width="220" height="12" rx="6" fill="#E9EEFF"/>
<rect x="210" y="332" width="260" height="16" rx="8" fill="#DCE3FF"/>
<rect x="210" y="376" width="130" height="36" rx="12" fill="#4461F2"/>
<rect x="514" y="220" width="180" height="250" rx="18" fill="#F5F7FF"/>
<rect x="542" y="252" width="124" height="124" rx="62" fill="url(#paint1_linear_101_2)"/>
<path d="M573 313.5L600 341L635 287" stroke="white" stroke-width="16" stroke-linecap="round" stroke-linejoin="round"/>
<rect x="542" y="402" width="124" height="14" rx="7" fill="#CFD9FF"/>
<defs>
<linearGradient id="paint0_linear_101_2" x1="84" y1="42" x2="806" y2="638" gradientUnits="userSpaceOnUse">
<stop stop-color="#182654"/>
<stop offset="1" stop-color="#304CC0"/>
</linearGradient>
<linearGradient id="paint1_linear_101_2" x1="542" y1="252" x2="666" y2="376" gradientUnits="userSpaceOnUse">
<stop stop-color="#6A7DFF"/>
<stop offset="1" stop-color="#4461F2"/>
</linearGradient>
</defs>
</svg>
